{"title":"Heat 1995 DVDRip Xvid AC3 LKRG","uid":10150002,"size":1883745928,"categoryP":"video","categoryS":"movies","magnet":"?xt=urn:btih:cd3244d26f853899b74ff77b253a3694bb8912be&amp;dn=Heat+1995+DVDRip+Xvid+AC3+LKRG&amp;tr=udp%3A%2F%2Ftracker.openbittorrent.com%3A80&amp;tr=udp%3A%2F%2Fopen.demonii.com%3A1337&amp;tr=udp%3A%2F%2Ftracker.coppersurfer.tk%3A6969&amp;tr=udp%3A%2F%2Fexodus.desync.com%3A6969","seeders":8,"leechers":1,"uploader":".BONE.","files":2,"time":1400091800,"description":"PLOT\n\nA group of professional bank robbers start to feel the heat from police when they\nunknowingly leave a clue at their latest heist.\n\nRuntime ..........: 2h 50mn\nFile Size ........: 1.75 GiB\nResolution .......: 720 x 304 &lt;a href=&quot;\nhttp://www.imdb.com/title/tt0113277/&quot; rel=&quot;nofollow&quot; target=&quot;_NEW&quot;&gt;\nhttp://www.imdb.com/title/tt0113277/&lt;/a&gt;\nGenre ............: Action,Crime,Drama\nLanguage .........: English\nSubtitles ........: None\nFormat : AVI\nFormat/Info : Audio Video Interleave\nFile size : 1.75 GiB\nDuration : 2h 50mn\nOverall bit rate : 1 473 Kbps\nWriting application : VirtualDubMod 1.5.10.2 (build 2540/release)\nWriting library : VirtualDubMod build 2540/release\nVideo\nID : 0\nFormat : MPEG-4 Visual\nFormat profile : Advanced Simple@L5\nFormat settings, BVOP : 2\nFormat settings, QPel : No\nFormat settings, GMC : No warppoints\nFormat settings, Matrix : Default (H.263)\nMuxing mode : Packed bitstream\nCodec ID : XVID\nCodec ID/Hint : XviD\nDuration : 2h 50mn\nBit rate : 1 016 Kbps\nWidth : 720 pixels\nHeight : 304 pixels\nDisplay aspect ratio : 2.40:1\nFrame rate : 23.976 fps\nColor space : YUV\nChroma subsampling : 4:2:0\nBit depth : 8 bits\nScan type : Progressive\nCompression mode : Lossy\nBits/(Pixel*Frame) : 0.194\nStream size : 1.21 GiB (69%)\nWriting library : XviD 1.2.1 (UTC 2008-12-04)\nAudio\nID : 1\nFormat : AC-3\nFormat/Info : Audio Coding 3\nMode extension : CM (complete main)\nFormat settings, Endianness : Big\nCodec ID : 2000\nDuration : 2h 50mn\nBit rate mode : Constant\nBit rate : 448 Kbps\nChannel(s) : 6 channels\nChannel positions : Front: L C R, Side: L R, LFE\nSampling rate : 48.0 KHz\nBit depth : 16 bits\nCompression mode : Lossy\nStream size : 546 MiB (30%)\nAlignment : Split accross interleaves\nInterleave, duration : 42 ms (1.00 video frame)\nInterleave, preload duration : 500 ms","torrent":{"xt":"urn:btih:cd3244d26f853899b74ff77b253a3694bb8912be","amp;dn":"Heat+1995+DVDRip+Xvid+AC3+LKRG","amp;tr":["udp%3A%2F%2Ftracker.openbittorrent.com%3A80","udp%3A%2F%2Fopen.demonii.com%3A1337","udp%3A%2F%2Ftracker.coppersurfer.tk%3A6969","udp%3A%2F%2Fexodus.desync.com%3A6969"],"infoHash":"cd3244d26f853899b74ff77b253a3694bb8912be","infoHashBuffer":{"type":"Buffer","data":[205,50,68,210,111,133,56,153,183,79,247,123,37,58,54,148,187,137,18,190]},"announce":[],"urlList":[]}}